<svg xmlns="http://www.w3.org/2000/svg" xmlns:xlink="http://www.w3.org/1999/xlink" width="349" height="136" viewBox="0 0 349 136">
    <defs>
        <path id="a" d="M0 135.232h348.684V.685H0z"/>
        <path id="c" d="M0 135.232h348.684V.685H0z"/>
        <path id="e" d="M0 135.232h348.684V.685H0z"/>
        <path id="g" d="M0 135.232h348.684V.685H0z"/>
        <path id="i" d="M0 135.232h348.684V.685H0z"/>
        <path id="k" d="M0 135.232h348.684V.685H0z"/>
        <path id="m" d="M0 135.232h348.684V.685H0z"/>
        <path id="o" d="M0 135.232h348.684V.685H0z"/>
        <path id="q" d="M0 135.232h348.684V.685H0z"/>
        <path id="s" d="M0 135.232h348.684V.685H0z"/>
        <path id="u" d="M0 135.232h348.684V.685H0z"/>
        <path id="w" d="M0 135.232h348.684V.685H0z"/>
        <path id="y" d="M0 135.232h348.684V.685H0z"/>
        <path id="A" d="M0 135.232h348.684V.685H0z"/>
        <path id="C" d="M0 135.232h348.684V.685H0z"/>
        <path id="E" d="M0 135.232h348.684V.685H0z"/>
        <path id="G" d="M0 135.232h348.684V.685H0z"/>
        <path id="I" d="M0 135.232h348.684V.685H0z"/>
        <path id="K" d="M0 135.232h348.684V.685H0z"/>
        <path id="M" d="M0 135.232h348.684V.685H0z"/>
        <path id="O" d="M0 135.232h348.684V.685H0z"/>
        <path id="Q" d="M0 135.232h348.684V.685H0z"/>
        <path id="S" d="M0 135.232h348.684V.685H0z"/>
        <path id="U" d="M0 135.232h348.684V.685H0z"/>
        <path id="W" d="M0 135.232h348.684V.685H0z"/>
        <path id="Y" d="M0 135.232h348.684V.685H0z"/>
        <path id="aa" d="M0 135.232h348.684V.685H0z"/>
        <path id="ac" d="M0 135.232h348.684V.685H0z"/>
        <path id="ae" d="M0 135.232h348.684V.685H0z"/>
        <path id="ag" d="M0 135.232h348.684V.685H0z"/>
        <path id="ai" d="M0 135.232h348.684V.685H0z"/>
        <path id="ak" d="M0 135.232h348.684V.685H0z"/>
        <path id="am" d="M0 135.232h348.684V.685H0z"/>
        <path id="ao" d="M0 135.232h348.684V.685H0z"/>
    </defs>
    <g fill="none" fill-rule="evenodd">
        <path fill="#F05561" fill-rule="nonzero" d="M276 74h12V1h-12z"/>
        <path fill="#76787A" fill-rule="nonzero" d="M142 73h12V21h-12zM61 73h12V21H61z"/>
        <path fill="#F05561" fill-rule="nonzero" d="M337.064 61.754H313.92c-3.06 0-6.069-3.006-6.069-6.06V37.967c0-2.918 2.788-5.41 6.069-5.41h23.143v29.197zm-26.388-40.746c-7.979 0-14.355 6.437-14.355 14.504v23.39c0 8.114 6.24 14.355 14.355 14.355h37.918V21.008h-37.918zM255.834 61.754h-23.143c-3.059 0-6.068-3.006-6.068-6.06V37.967c0-2.918 2.787-5.41 6.068-5.41h23.143v29.197zm-26.388-40.746c-7.979 0-14.355 6.437-14.355 14.504v23.39c0 8.114 6.241 14.355 14.355 14.355h37.918V21.008h-37.918z"/>
        <g>
            <mask id="b" fill="#fff">
                <use xlink:href="#a"/>
            </mask>
            <path fill="#F05561" fill-rule="nonzero" d="M162.579 73.256h11.53V.692h-11.53z" mask="url(#b)"/>
        </g>
        <g>
            <mask id="d" fill="#fff">
                <use xlink:href="#c"/>
            </mask>
            <path fill="#F05561" fill-rule="nonzero" d="M210.73 21.005h-14.973L174.11 47.133l21.646 26.124h14.972l-21.645-26.124z" mask="url(#d)"/>
        </g>
        <g>
            <mask id="f" fill="#fff">
                <use xlink:href="#e"/>
            </mask>
            <path fill="#76787A" fill-rule="nonzero" d="M92.897 55.694V37.968c0-2.919 2.787-5.411 6.068-5.411h23.143v29.198H98.965c-3.059 0-6.068-3.006-6.068-6.06zm40.741-34.686H95.72c-7.978 0-14.355 6.438-14.355 14.503v23.391c0 8.114 6.241 14.355 14.355 14.355h37.918V21.008z" mask="url(#f)"/>
        </g>
        <g>
            <mask id="h" fill="#fff">
                <use xlink:href="#g"/>
            </mask>
            <path fill="#76787A" fill-rule="nonzero" d="M122.106 60.314v15.599c0 3.057-3.007 6.065-6.062 6.065h-11.437l-11.715-.002 8.716 11.529h17.646c8.117 0 14.36-6.239 14.36-14.349V60.314h-11.508z" mask="url(#h)"/>
        </g>
        <g>
            <mask id="j" fill="#fff">
                <use xlink:href="#i"/>
            </mask>
            <path fill="#76787A" fill-rule="nonzero" d="M61.08 12.207h11.53V.685H61.08z" mask="url(#j)"/>
        </g>
        <g>
            <mask id="l" fill="#fff">
                <use xlink:href="#k"/>
            </mask>
            <path fill="#76787A" fill-rule="nonzero" d="M142.326 12.207h11.53V.685h-11.53z" mask="url(#l)"/>
        </g>
        <g>
            <mask id="n" fill="#fff">
                <use xlink:href="#m"/>
            </mask>
            <path fill="#76787A" fill-rule="nonzero" d="M40.834 61.708H17.69c-3.28 0-6.068-2.492-6.068-5.41v-.586c0-.021-.004-.044-.004-.065V37.92c0-2.92 2.788-5.412 6.069-5.412H40.83v.003h.004v29.197zM40.832.686v20.322H14.446C6.332 21.008.09 27.248.09 35.363v23.39c0 8.066 6.377 14.504 14.356 14.504h37.918V.686H40.832z" mask="url(#n)"/>
        </g>
        <g>
            <mask id="p" fill="#fff">
                <use xlink:href="#o"/>
            </mask>
            <path fill="#76787A" fill-rule="nonzero" d="M7.048 120.377h3.247V117.5H7.048z" mask="url(#p)"/>
        </g>
        <g>
            <mask id="r" fill="#fff">
                <use xlink:href="#q"/>
            </mask>
            <path fill="#76787A" fill-rule="nonzero" d="M32.47 121.733c0 .787-.227 1.39-.682 1.807-.456.418-1.089.627-1.9.627h-8.929c-.763 0-1.39-.209-1.882-.627-.492-.418-.738-.983-.738-1.696v-4.426H15.57v9.036c0 .786-.11 1.53-.332 2.231a5.081 5.081 0 0 1-1.051 1.863c-.48.54-1.083.965-1.808 1.272-.726.307-1.58.461-2.565.461H8.34c-1.992 0-3.419-.528-4.28-1.586-.862-1.057-1.291-2.47-1.291-4.241v-5.79H0v5.9c0 2.68.696 4.795 2.089 6.344 1.393 1.55 3.346 2.324 5.86 2.324h2.07c1.282 0 2.43-.235 3.44-.701a8 8 0 0 0 2.588-1.881 8.187 8.187 0 0 0 1.645-2.785c.382-1.07.573-2.207.573-3.411v-.553a2.85 2.85 0 0 0 1.236.94c.48.185.965.277 1.458.277h9.126c1.632 0 2.898-.449 3.799-1.346.902-.898 1.354-2.195 1.354-3.891v-4.463H32.47v4.315z" mask="url(#r)"/>
        </g>
        <g>
            <mask id="t" fill="#fff">
                <use xlink:href="#s"/>
            </mask>
            <path fill="#76787A" fill-rule="nonzero" d="M31.548 134.599h2.951v-2.767h-2.951z" mask="url(#t)"/>
        </g>
        <g>
            <mask id="v" fill="#fff">
                <use xlink:href="#u"/>
            </mask>
            <path fill="#76787A" fill-rule="nonzero" d="M26.935 134.599h2.99v-2.767h-2.99z" mask="url(#v)"/>
        </g>
        <g>
            <mask id="x" fill="#fff">
                <use xlink:href="#w"/>
            </mask>
            <path fill="#76787A" fill-rule="nonzero" d="M58.114 112.18h3.247v-2.876h-3.247z" mask="url(#x)"/>
        </g>
        <g>
            <mask id="z" fill="#fff">
                <use xlink:href="#y"/>
            </mask>
            <path fill="#76787A" fill-rule="nonzero" d="M59.553 121.733c0 .787-.227 1.39-.682 1.807-.456.418-1.089.627-1.9.627h-3.543c-.713 0-1.34-.178-1.882-.534-.54-.357-.811-.99-.811-1.9v-9.706h-2.768v9.706c0 .787-.216 1.39-.645 1.807-.43.418-1.077.627-1.938.627h-3.763v-12.14h-2.768v15.09h6.531c.738 0 1.44-.14 2.104-.423.664-.283 1.254-.855 1.77-1.715.493.86 1.09 1.432 1.79 1.715a6.11 6.11 0 0 0 2.306.424h3.814c1.632 0 2.898-.449 3.8-1.346.902-.898 1.353-2.195 1.353-3.891v-4.463h-2.768v4.315z" mask="url(#z)"/>
        </g>
        <g>
            <mask id="B" fill="#fff">
                <use xlink:href="#A"/>
            </mask>
            <path fill="#76787A" fill-rule="nonzero" d="M66.157 106.061c-.418.273-.811.83-1.18 1.673l-.96 2.118 1.771.816.701-1.512c.197-.442.419-.706.665-.793.246-.085.59-.129 1.033-.129h6.236l.11-2.582h-6.457c-.862 0-1.5.137-1.919.41" mask="url(#B)"/>
        </g>
        <g>
            <mask id="D" fill="#fff">
                <use xlink:href="#C"/>
            </mask>
            <path fill="#76787A" fill-rule="nonzero" d="M68.519 127.118h2.767v-15.306h-2.767z" mask="url(#D)"/>
        </g>
        <g>
            <mask id="F" fill="#fff">
                <use xlink:href="#E"/>
            </mask>
            <path fill="#76787A" fill-rule="nonzero" d="M102.096 134.599h2.988v-2.767h-2.988z" mask="url(#F)"/>
        </g>
        <g>
            <mask id="H" fill="#fff">
                <use xlink:href="#G"/>
            </mask>
            <path fill="#76787A" fill-rule="nonzero" d="M112.515 125.772c.901-.898 1.351-2.195 1.351-3.891v-4.463h-2.767v4.315c0 .788-.228 1.39-.682 1.807-.456.419-1.089.627-1.901.627H94.864c-.812 0-1.427-.19-1.845-.571-.418-.382-.8-1.027-1.144-1.937l-3.468-9.958-2.657 1.07a1038.71 1038.71 0 0 1 1.66 4.592c.419 1.168.738 2.096.96 2.784.221.689.369 1.199.443 1.53.073.333.11.597.11.794 0 .369-.172.743-.516 1.125-.345.381-.972.571-1.882.571H79.44l.185 2.95h7.195c.836 0 1.605-.147 2.306-.442.701-.295 1.286-.872 1.753-1.733.566.91 1.187 1.5 1.863 1.77a5.648 5.648 0 0 0 2.122.406H108.723c1.628 0 2.892-.449 3.792-1.346" mask="url(#H)"/>
        </g>
        <g>
            <mask id="J" fill="#fff">
                <use xlink:href="#I"/>
            </mask>
            <path fill="#76787A" fill-rule="nonzero" d="M106.708 134.599h2.952v-2.767h-2.952z" mask="url(#J)"/>
        </g>
        <g>
            <mask id="L" fill="#fff">
                <use xlink:href="#K"/>
            </mask>
            <path fill="#76787A" fill-rule="nonzero" d="M130.728 112.18h3.247v-2.876h-3.247z" mask="url(#L)"/>
        </g>
        <g>
            <mask id="N" fill="#fff">
                <use xlink:href="#M"/>
            </mask>
            <path fill="#76787A" fill-rule="nonzero" d="M138.09 115.518c-.554-.48-1.138-.793-1.753-.94a7.735 7.735 0 0 0-1.808-.221h-7.564l-.185 2.95h7.343c.566 0 1.039.055 1.42.166.382.11.702.277.96.498.258.221.48.486.664.793.185.308.363.658.535 1.051l-5.018 2.877c-.517.295-1.02.535-1.513.719-.492.184-1.015.332-1.568.443-.553.11-1.168.19-1.845.24-.676.05-1.433.073-2.27.073h-1.807c-.763 0-1.39-.208-1.881-.627-.493-.418-.738-.983-.738-1.697v-4.425h-2.768v9.146c0 .738-.111 1.451-.333 2.14a5.062 5.062 0 0 1-1.032 1.825c-.468.529-1.07.953-1.808 1.272-.738.32-1.611.48-2.62.48h-.516l.184 2.95h.811a7.71 7.71 0 0 0 3.155-.645 7.474 7.474 0 0 0 2.52-1.807c.707-.775 1.267-1.69 1.678-2.748.412-1.057.618-2.213.618-3.467v-.664c.344.443.762.756 1.254.94.493.185.984.278 1.476.278h1.697c.984 0 1.863-.037 2.638-.111a15.746 15.746 0 0 0 2.104-.332 10.526 10.526 0 0 0 1.79-.59 16.25 16.25 0 0 0 1.733-.885l7.159-4.205c-.32-1.426-.714-2.575-1.181-3.448-.467-.872-.978-1.55-1.531-2.029" mask="url(#N)"/>
        </g>
        <g>
            <mask id="P" fill="#fff">
                <use xlink:href="#O"/>
            </mask>
            <path fill="#76787A" fill-rule="nonzero" d="M157.775 124.167h-2.657c-1.303 0-2.183-.208-2.638-.627-.455-.418-.683-1.106-.683-2.065 0-1.033.246-1.85.738-2.453.492-.602 1.205-.903 2.14-.903.985 0 1.747.307 2.288.922.54.614.812 1.636.812 3.061v2.065zm.996-7.358a4.74 4.74 0 0 0-1.79-1.161 6.276 6.276 0 0 0-2.158-.37c-.935 0-1.753.173-2.454.517a5.314 5.314 0 0 0-1.77 1.383 5.95 5.95 0 0 0-1.09 2.029 8.054 8.054 0 0 0-.368 2.452c0 .86.08 1.63.24 2.305.16.677.455 1.248.885 1.715.43.468 1.015.825 1.753 1.07.738.246 1.685.369 2.841.369h2.878a6.56 6.56 0 0 1-.443 1.991 5.003 5.003 0 0 1-1.07 1.642 4.884 4.884 0 0 1-1.734 1.125c-.689.27-1.488.405-2.398.405h-3.469l.185 2.95h3.468c1.279 0 2.423-.234 3.432-.7a7.652 7.652 0 0 0 2.564-1.9 8.386 8.386 0 0 0 1.605-2.766 9.844 9.844 0 0 0 .554-3.3v-4.61c0-1.205-.148-2.232-.443-3.08-.295-.848-.701-1.537-1.218-2.066z" mask="url(#P)"/>
        </g>
        <g>
            <mask id="R" fill="#fff">
                <use xlink:href="#Q"/>
            </mask>
            <path fill="#76787A" fill-rule="nonzero" d="M177.995 134.672h3.247v-2.913h-3.247z" mask="url(#R)"/>
        </g>
        <g>
            <mask id="T" fill="#fff">
                <use xlink:href="#S"/>
            </mask>
            <path fill="#76787A" fill-rule="nonzero" d="M187.994 121.733c0 .787-.215 1.39-.645 1.807-.43.418-1.077.627-1.938.627h-11.07c-1.155 0-1.943-.264-2.36-.793-.419-.528-.628-1.235-.628-2.12v-3.947h-2.767v4.647c0 .689.098 1.347.296 1.974.197.627.498 1.174.904 1.64.407.468.937.843 1.59 1.126.653.282 1.448.424 2.384.424h12.086c.64 0 1.257-.105 1.848-.314a4.683 4.683 0 0 0 1.571-.922c.456-.405.82-.91 1.09-1.512.271-.602.407-1.297.407-2.084v-4.868h-2.768v4.315z" mask="url(#T)"/>
        </g>
        <g>
            <mask id="V" fill="#fff">
                <use xlink:href="#U"/>
            </mask>
            <path fill="#76787A" fill-rule="nonzero" d="M212.42 112.18h3.247v-2.876h-3.247z" mask="url(#V)"/>
        </g>
        <g>
            <mask id="X" fill="#fff">
                <use xlink:href="#W"/>
            </mask>
            <path fill="#76787A" fill-rule="nonzero" d="M233.232 112.125h3.063v-2.766h-3.063z" mask="url(#X)"/>
        </g>
        <g>
            <mask id="Z" fill="#fff">
                <use xlink:href="#Y"/>
            </mask>
            <path fill="#76787A" fill-rule="nonzero" d="M228.73 112.125h3.063v-2.766h-3.063z" mask="url(#Z)"/>
        </g>
        <g>
            <mask id="ab" fill="#fff">
                <use xlink:href="#aa"/>
            </mask>
            <path fill="#76787A" fill-rule="nonzero" d="M245.998 121.733c0 .787-.228 1.39-.683 1.807-.456.418-1.088.627-1.9.627h-4.242a3.276 3.276 0 0 1-1.845-.534c-.542-.357-.812-.99-.812-1.9v-4.315h-2.768v4.315c0 .787-.216 1.39-.645 1.807-.43.418-1.077.627-1.938.627h-7.933c-.714 0-1.298-.135-1.753-.405-.455-.27-.855-.763-1.2-1.476l2.215-1.29c-.32-1.427-.714-2.576-1.18-3.449-.469-.872-.978-1.549-1.533-2.028-.552-.48-1.137-.793-1.751-.94a7.74 7.74 0 0 0-1.809-.222h-7.564l-.184 2.95h7.343c.565 0 1.038.056 1.42.166.381.111.701.277.96.498.257.222.48.486.664.793.184.308.362.658.535 1.051l-5.018 2.877c-.518.295-1.022.535-1.514.72-.492.184-1.014.331-1.568.442-.553.11-1.169.19-1.844.24-.678.049-1.434.073-2.27.073H199.433c-.788 0-1.366-.258-1.735-.774-.369-.517-.553-1.193-.553-2.029v-9.337h-2.768v9.927c0 .984.123 1.801.37 2.453.245.652.578 1.18.996 1.586.418.406.904.695 1.457.867a5.87 5.87 0 0 0 1.753.258h8.118c.983 0 1.863-.037 2.637-.11a15.759 15.759 0 0 0 2.104-.333 10.517 10.517 0 0 0 1.789-.59 16.55 16.55 0 0 0 1.735-.885l2.988-1.77c.172.516.382 1.002.627 1.456.246.455.554.849.923 1.18.37.333.805.59 1.31.775.504.185 1.126.277 1.864.277h8.117c.738 0 1.44-.142 2.104-.424.664-.283 1.254-.855 1.77-1.715.467.86 1.052 1.432 1.754 1.715a6.11 6.11 0 0 0 2.306.424H243.613c1.632 0 2.898-.449 3.799-1.346.902-.898 1.353-2.195 1.353-3.891v-4.463h-2.767v4.315z" mask="url(#ab)"/>
        </g>
        <g>
            <mask id="ad" fill="#fff">
                <use xlink:href="#ac"/>
            </mask>
            <path fill="#76787A" fill-rule="nonzero" d="M244.558 112.18h3.247v-2.876h-3.247z" mask="url(#ad)"/>
        </g>
        <g>
            <mask id="af" fill="#fff">
                <use xlink:href="#ae"/>
            </mask>
            <path fill="#76787A" fill-rule="nonzero" d="M252.38 127.118h2.768v-15.09h-2.767z" mask="url(#af)"/>
        </g>
        <g>
            <mask id="ah" fill="#fff">
                <use xlink:href="#ag"/>
            </mask>
            <path fill="#76787A" fill-rule="nonzero" d="M265.886 122.987c0-.443.012-.8.037-1.07.026-.27.1-.484.227-.645.125-.16.306-.283.545-.369a8.666 8.666 0 0 1 1.036-.276v-1.734c-.812.124-1.464.283-1.956.48-.492.196-.867.51-1.125.94-.258.43-.424 1.009-.498 1.734-.074.725-.11 1.665-.11 2.821 0 .788.165 1.358.497 1.715.332.356.818.535 1.458.535 1.278 0 1.918-.689 1.918-2.066 0-.737-.17-1.266-.507-1.586-.338-.32-.846-.479-1.522-.479" mask="url(#ah)"/>
        </g>
        <g>
            <mask id="aj" fill="#fff">
                <use xlink:href="#ai"/>
            </mask>
            <path fill="#76787A" fill-rule="nonzero" d="M321.491 121.88v-4.462h-2.767v4.315c0 .788-.228 1.39-.683 1.807-.456.419-1.065.627-1.826.627-.64 0-1.2-.178-1.68-.535-.479-.356-.719-.99-.719-1.899v-4.315h-2.767v4.315c0 .788-.24 1.39-.72 1.807-.48.419-1.187.627-2.121.627-.69 0-1.31-.178-1.864-.535-.553-.356-.83-.99-.83-1.899v-4.315h-2.767v4.315c0 .788-.228 1.39-.683 1.807-.455.419-1.113.627-1.974.627h-18.633l-.185 2.95h5.24c.64 0 1.088.179 1.347.536.258.356.387.78.387 1.272 0 .443-.098.867-.295 1.272-.198.406-.517.762-.96 1.07-.442.307-1.027.553-1.752.738-.727.184-1.618.276-2.675.276h-2.657c-1.992 0-3.42-.529-4.28-1.586-.862-1.057-1.292-2.47-1.292-4.241v-5.79h-2.767v5.9c0 2.68.694 4.795 2.085 6.344 1.389 1.55 3.34 2.324 5.848 2.324h3.469c1.5 0 2.754-.197 3.763-.59 1.009-.394 1.82-.892 2.436-1.494.614-.603 1.057-1.254 1.328-1.955.27-.7.406-1.346.406-1.936 0-.493-.055-.917-.166-1.273a1.764 1.764 0 0 0-.572-.866H300.016c.787 0 1.525-.142 2.214-.424.689-.283 1.291-.855 1.808-1.715.492.86 1.095 1.432 1.808 1.715.713.282 1.5.424 2.362.424.787 0 1.543-.142 2.269-.424.726-.283 1.347-.855 1.863-1.715.494.86 1.086 1.432 1.778 1.715a5.819 5.819 0 0 0 2.223.424c1.606 0 2.865-.449 3.78-1.346.913-.898 1.37-2.195 1.37-3.891" mask="url(#aj)"/>
        </g>
        <g>
            <mask id="al" fill="#fff">
                <use xlink:href="#ak"/>
            </mask>
            <path fill="#76787A" fill-rule="nonzero" d="M328.686 117.418h-2.767v9.146c0 .738-.11 1.451-.332 2.14a4.943 4.943 0 0 1-1.052 1.825c-.48.529-1.101.953-1.863 1.273-.762.32-1.673.48-2.73.48h-1.55l.184 2.95h2.03c1.131 0 2.189-.216 3.173-.646a7.62 7.62 0 0 0 2.556-1.807 8.8 8.8 0 0 0 1.716-2.748c.423-1.057.635-2.213.635-3.467v-9.146z" mask="url(#al)"/>
        </g>
        <g>
            <mask id="an" fill="#fff">
                <use xlink:href="#am"/>
            </mask>
            <path fill="#76787A" fill-rule="nonzero" d="M341.6 134.672h3.247v-2.913H341.6z" mask="url(#an)"/>
        </g>
        <g>
            <mask id="ap" fill="#fff">
                <use xlink:href="#ao"/>
            </mask>
            <path fill="#76787A" fill-rule="nonzero" d="M345.917 117.418v4.315c0 .788-.227 1.39-.682 1.807-.456.419-1.089.627-1.9.627h-3.358c-.763 0-1.39-.208-1.882-.627-.492-.418-.738-.983-.738-1.696v-4.426h-2.768v9.146c0 .738-.11 1.451-.332 2.14a5.077 5.077 0 0 1-1.033 1.825c-.467.529-1.07.953-1.808 1.273-.738.32-1.61.48-2.62.48h-.516l.184 2.95h.812a7.716 7.716 0 0 0 3.155-.646 7.474 7.474 0 0 0 2.519-1.807c.707-.775 1.267-1.69 1.679-2.748.412-1.057.617-2.213.617-3.467v-.663c.344.442.763.756 1.255.94a4.18 4.18 0 0 0 1.476.277h3.556c1.63 0 2.897-.448 3.798-1.347.902-.897 1.354-2.194 1.354-3.89v-4.463h-2.768z" mask="url(#ap)"/>
        </g>
    </g>
</svg>
